<?xml version="1.0" encoding="UTF-8"?>
<!DOCTYPE svg PUBLIC "-//W3C//DTD SVG 1.1//EN" "http://www.w3.org/Graphics/SVG/1.1/DTD/svg11.dtd">
<svg xmlns="http://www.w3.org/2000/svg" version="1.1" width="512px" height="512px" style="shape-rendering:geometricPrecision; text-rendering:geometricPrecision; image-rendering:optimizeQuality; fill-rule:evenodd; clip-rule:evenodd" xmlns:xlink="http://www.w3.org/1999/xlink">
<g><path style="opacity:0.982" fill="#000000" d="M 124.5,-0.5 C 211.833,-0.5 299.167,-0.5 386.5,-0.5C 444.774,8.74114 484.274,41.0745 505,96.5C 507.832,105.819 509.999,115.153 511.5,124.5C 511.5,211.833 511.5,299.167 511.5,386.5C 502.259,444.774 469.926,484.274 414.5,505C 405.181,507.832 395.847,509.999 386.5,511.5C 299.167,511.5 211.833,511.5 124.5,511.5C 66.2264,502.259 26.7264,469.926 6,414.5C 3.16778,405.181 1.00111,395.847 -0.5,386.5C -0.5,299.167 -0.5,211.833 -0.5,124.5C 8.74114,66.2264 41.0745,26.7264 96.5,6C 105.819,3.16778 115.153,1.00111 124.5,-0.5 Z M 130.5,45.5 C 213.834,45.3333 297.167,45.5 380.5,46C 420.141,52.0731 446.974,73.9064 461,111.5C 462.717,117.752 464.05,124.086 465,130.5C 465.667,213.833 465.667,297.167 465,380.5C 458.927,420.141 437.094,446.974 399.5,461C 393.248,462.717 386.914,464.05 380.5,465C 297.167,465.667 213.833,465.667 130.5,465C 90.859,458.927 64.0256,437.094 50,399.5C 48.2828,393.248 46.9495,386.914 46,380.5C 45.0161,295.137 45.3495,209.803 47,124.5C 54.002,91.335 72.8353,67.5016 103.5,53C 112.402,49.6943 121.402,47.1943 130.5,45.5 Z M 246.5,169.5 C 282.765,167.88 310.599,182.214 330,212.5C 349.367,251.938 343.867,287.438 313.5,319C 285.546,342.423 254.546,347.423 220.5,334C 179.166,311.825 163.333,277.658 173,231.5C 185.483,196.512 209.983,175.845 246.5,169.5 Z"/></g>
<g><path style="opacity:0.965" fill="#000000" d="M 388.5,84.5 C 411.64,84.3135 424.307,95.6468 426.5,118.5C 424.936,139.231 413.769,150.564 393,152.5C 371.956,150.457 360.789,138.957 359.5,118C 360.803,99.5338 370.47,88.3671 388.5,84.5 Z"/></g>
<g><path style="opacity:0.976" fill="#000000" d="M 240.5,123.5 C 297.558,120.109 341.058,142.442 371,190.5C 388.73,223.974 392.397,258.974 382,295.5C 362.886,347.943 325.72,378.443 270.5,387C 213.43,390.884 169.93,368.717 140,320.5C 122.27,287.026 118.603,252.026 129,215.5C 148.272,163.055 185.438,132.388 240.5,123.5 Z M 246.5,169.5 C 209.983,175.845 185.483,196.512 173,231.5C 163.333,277.658 179.166,311.825 220.5,334C 254.546,347.423 285.546,342.423 313.5,319C 343.867,287.438 349.367,251.938 330,212.5C 310.599,182.214 282.765,167.88 246.5,169.5 Z"/></g>
</svg>
