<?xml version="1.0" encoding="UTF-8"?>
<!DOCTYPE svg PUBLIC "-//W3C//DTD SVG 1.1//EN" "http://www.w3.org/Graphics/SVG/1.1/DTD/svg11.dtd">
<svg xmlns="http://www.w3.org/2000/svg" version="1.1" width="980px" height="980px" style="shape-rendering:geometricPrecision; text-rendering:geometricPrecision; image-rendering:optimizeQuality; fill-rule:evenodd; clip-rule:evenodd" xmlns:xlink="http://www.w3.org/1999/xlink">
<g><path style="opacity:1" fill="#070707" d="M 458.5,-0.5 C 479.167,-0.5 499.833,-0.5 520.5,-0.5C 594.675,4.77872 664.342,25.4454 729.5,61.5C 729.821,63.0481 730.821,63.7148 732.5,63.5C 733.833,64.1667 735.167,64.8333 736.5,65.5C 736.821,67.0481 737.821,67.7148 739.5,67.5C 740.167,67.8333 740.833,68.1667 741.5,68.5C 741.821,70.0481 742.821,70.7148 744.5,70.5C 746.332,71.2485 747.999,72.2485 749.5,73.5C 749.821,75.0481 750.821,75.7148 752.5,75.5C 788.905,98.0823 821.572,125.416 850.5,157.5C 850.738,159.404 851.738,160.738 853.5,161.5C 855.833,163.167 857.833,165.167 859.5,167.5C 859.427,169.027 860.094,170.027 861.5,170.5C 862.5,170.833 863.167,171.5 863.5,172.5C 863.738,174.404 864.738,175.738 866.5,176.5C 867.833,177.167 868.833,178.167 869.5,179.5C 869.427,181.027 870.094,182.027 871.5,182.5C 872.5,182.833 873.167,183.5 873.5,184.5C 873.427,186.027 874.094,187.027 875.5,187.5C 881.896,194.624 887.563,202.291 892.5,210.5C 892.427,212.027 893.094,213.027 894.5,213.5C 894.427,215.027 895.094,216.027 896.5,216.5C 896.427,218.027 897.094,219.027 898.5,219.5C 898.427,221.027 899.094,222.027 900.5,222.5C 900.427,224.027 901.094,225.027 902.5,225.5C 902.427,227.027 903.094,228.027 904.5,228.5C 905.89,229.899 906.89,231.566 907.5,233.5C 907.427,235.027 908.094,236.027 909.5,236.5C 910.338,236.842 910.672,237.508 910.5,238.5C 910.427,240.027 911.094,241.027 912.5,241.5C 915.258,244.678 917.258,248.345 918.5,252.5C 918.427,254.027 919.094,255.027 920.5,255.5C 932.088,275.915 941.754,297.249 949.5,319.5C 949.12,321.698 949.787,323.365 951.5,324.5C 954.77,332.976 957.436,341.643 959.5,350.5C 959.41,353.152 960.076,355.485 961.5,357.5C 961.41,360.152 962.076,362.485 963.5,364.5C 971.861,395.332 977.194,426.666 979.5,458.5C 979.5,479.167 979.5,499.833 979.5,520.5C 964.305,688.808 885.972,818.308 744.5,909C 675.384,950.317 600.718,973.817 520.5,979.5C 499.833,979.5 479.167,979.5 458.5,979.5C 428.048,977.292 398.048,972.292 368.5,964.5C 366.485,963.076 364.152,962.41 361.5,962.5C 359.901,962.768 358.568,962.434 357.5,961.5C 355.485,960.076 353.152,959.41 350.5,959.5C 341.637,957.434 332.97,954.768 324.5,951.5C 323.365,949.787 321.698,949.12 319.5,949.5C 292.157,939.827 266.157,927.494 241.5,912.5C 241.027,911.094 240.027,910.427 238.5,910.5C 237.508,910.672 236.842,910.338 236.5,909.5C 236.027,908.094 235.027,907.427 233.5,907.5C 231.566,906.89 229.899,905.89 228.5,904.5C 228.027,903.094 227.027,902.427 225.5,902.5C 225.027,901.094 224.027,900.427 222.5,900.5C 222.027,899.094 221.027,898.427 219.5,898.5C 219.027,897.094 218.027,896.427 216.5,896.5C 216.027,895.094 215.027,894.427 213.5,894.5C 213.027,893.094 212.027,892.427 210.5,892.5C 202.291,887.563 194.624,881.896 187.5,875.5C 187.027,874.094 186.027,873.427 184.5,873.5C 181.418,871.628 178.751,869.295 176.5,866.5C 175.738,864.738 174.404,863.738 172.5,863.5C 171.167,862.833 170.167,861.833 169.5,860.5C 169.027,859.094 168.027,858.427 166.5,858.5C 164.5,857.167 162.833,855.5 161.5,853.5C 160.415,851.413 158.749,850.08 156.5,849.5C 124.985,820.718 97.9852,788.385 75.5,752.5C 75.7148,750.821 75.0481,749.821 73.5,749.5C 72.2485,747.999 71.2485,746.332 70.5,744.5C 70.7148,742.821 70.0481,741.821 68.5,741.5C 27.9832,673.284 4.98317,599.617 -0.5,520.5C -0.5,499.833 -0.5,479.167 -0.5,458.5C 1.80564,426.666 7.13897,395.333 15.5,364.5C 16.9238,362.485 17.5905,360.152 17.5,357.5C 18.9238,355.485 19.5905,353.152 19.5,350.5C 20.9238,348.485 21.5905,346.152 21.5,343.5C 30.5568,312.728 42.8901,283.395 58.5,255.5C 59.9063,255.027 60.573,254.027 60.5,252.5C 61.7417,248.345 63.7417,244.678 66.5,241.5C 67.9063,241.027 68.573,240.027 68.5,238.5C 68.3284,237.508 68.6618,236.842 69.5,236.5C 70.9063,236.027 71.573,235.027 71.5,233.5C 72.1103,231.566 73.1103,229.899 74.5,228.5C 75.9063,228.027 76.573,227.027 76.5,225.5C 77.9063,225.027 78.573,224.027 78.5,222.5C 79.9063,222.027 80.573,221.027 80.5,219.5C 81.9063,219.027 82.573,218.027 82.5,216.5C 83.9063,216.027 84.573,215.027 84.5,213.5C 85.9063,213.027 86.573,212.027 86.5,210.5C 87.9063,210.027 88.573,209.027 88.5,207.5C 90.2624,206.738 91.2624,205.404 91.5,203.5C 95.016,197.8 99.016,192.467 103.5,187.5C 104.906,187.027 105.573,186.027 105.5,184.5C 105.833,183.5 106.5,182.833 107.5,182.5C 108.906,182.027 109.573,181.027 109.5,179.5C 110.167,178.167 111.167,177.167 112.5,176.5C 114.262,175.738 115.262,174.404 115.5,172.5C 115.833,171.5 116.5,170.833 117.5,170.5C 119.262,169.738 120.262,168.404 120.5,166.5C 121.833,164.5 123.5,162.833 125.5,161.5C 127.587,160.415 128.92,158.749 129.5,156.5C 135.833,149.5 142.5,142.833 149.5,136.5C 154.105,133.564 158.105,129.898 161.5,125.5C 161.5,124.833 161.833,124.5 162.5,124.5C 165.764,122.906 168.431,120.573 170.5,117.5C 173.089,116.581 175.089,114.914 176.5,112.5C 176.5,111.833 176.833,111.5 177.5,111.5C 179.749,110.92 181.415,109.587 182.5,107.5C 184.749,106.92 186.415,105.587 187.5,103.5C 193.577,97.762 200.244,92.762 207.5,88.5C 209.027,88.573 210.027,87.9063 210.5,86.5C 214.976,82.4254 219.976,79.0921 225.5,76.5C 227.027,76.573 228.027,75.9063 228.5,74.5C 229.899,73.1103 231.566,72.1103 233.5,71.5C 235.027,71.573 236.027,70.9063 236.5,69.5C 236.842,68.6618 237.508,68.3284 238.5,68.5C 240.027,68.573 241.027,67.9063 241.5,66.5C 244.678,63.7417 248.345,61.7417 252.5,60.5C 254.027,60.573 255.027,59.9063 255.5,58.5C 275.915,46.9124 297.249,37.2457 319.5,29.5C 322.716,29.6545 325.383,28.6545 327.5,26.5C 332.696,24.4348 338.03,22.7681 343.5,21.5C 346.152,21.5905 348.485,20.9238 350.5,19.5C 353.152,19.5905 355.485,18.9238 357.5,17.5C 360.152,17.5905 362.485,16.9238 364.5,15.5C 395.332,7.1391 426.666,1.80576 458.5,-0.5 Z M 606.5,59.5 C 608.515,60.9238 610.848,61.5905 613.5,61.5C 621.341,64.3359 629.341,67.0026 637.5,69.5C 638.93,70.5375 640.597,71.2041 642.5,71.5C 665.118,80.1501 687.118,90.1501 708.5,101.5C 708.973,102.906 709.973,103.573 711.5,103.5C 715.164,106.335 719.164,108.668 723.5,110.5C 723.973,111.906 724.973,112.573 726.5,112.5C 728.822,114.664 731.489,116.331 734.5,117.5C 734.973,118.906 735.973,119.573 737.5,119.5C 737.973,120.906 738.973,121.573 740.5,121.5C 742.55,123.547 744.883,125.214 747.5,126.5C 747.973,127.906 748.973,128.573 750.5,128.5C 754.765,132.638 759.431,136.305 764.5,139.5C 764.973,140.906 765.973,141.573 767.5,141.5C 767.833,142.5 768.5,143.167 769.5,143.5C 769.973,144.906 770.973,145.573 772.5,145.5C 772.833,146.5 773.5,147.167 774.5,147.5C 775.262,149.262 776.596,150.262 778.5,150.5C 779.833,152.5 781.5,154.167 783.5,155.5C 783.973,156.906 784.973,157.573 786.5,157.5C 788.5,160.167 790.833,162.5 793.5,164.5C 795.9,167.903 798.9,170.57 802.5,172.5C 803.833,174.167 805.167,175.833 806.5,177.5C 808.167,179.833 810.167,181.833 812.5,183.5C 832.458,204.449 850.125,227.116 865.5,251.5C 865.932,252.71 866.599,253.71 867.5,254.5C 869.833,258.5 872.167,262.5 874.5,266.5C 874.932,267.71 875.599,268.71 876.5,269.5C 877.167,270.833 877.833,272.167 878.5,273.5C 878.932,274.71 879.599,275.71 880.5,276.5C 934.819,380.026 948.152,488.693 920.5,602.5C 919.076,604.515 918.41,606.848 918.5,609.5C 917.388,611.599 916.721,613.933 916.5,616.5C 915.076,618.515 914.41,620.848 914.5,623.5C 912.462,627.94 910.796,632.607 909.5,637.5C 908.463,638.93 907.796,640.597 907.5,642.5C 898.384,667.064 887.384,690.731 874.5,713.5C 873.094,713.973 872.427,714.973 872.5,716.5C 870.917,718.663 869.584,720.996 868.5,723.5C 867.094,723.973 866.427,724.973 866.5,726.5C 865.11,727.899 864.11,729.566 863.5,731.5C 862.094,731.973 861.427,732.973 861.5,734.5C 860.094,734.973 859.427,735.973 859.5,737.5C 858.094,737.973 857.427,738.973 857.5,740.5C 855.453,742.55 853.786,744.883 852.5,747.5C 851.094,747.973 850.427,748.973 850.5,750.5C 846.362,754.765 842.695,759.431 839.5,764.5C 838.094,764.973 837.427,765.973 837.5,767.5C 836.5,767.833 835.833,768.5 835.5,769.5C 834.094,769.973 833.427,770.973 833.5,772.5C 832.5,772.833 831.833,773.5 831.5,774.5C 829.738,775.262 828.738,776.596 828.5,778.5C 826.5,779.833 824.833,781.5 823.5,783.5C 822.094,783.973 821.427,784.973 821.5,786.5C 818.833,788.5 816.5,790.833 814.5,793.5C 811.097,795.9 808.43,798.9 806.5,802.5C 804.833,803.5 803.5,804.833 802.5,806.5C 796.892,810.439 791.892,815.106 787.5,820.5C 786.833,820.5 786.5,820.833 786.5,821.5C 783.573,822.757 781.239,824.757 779.5,827.5C 778.833,827.5 778.5,827.833 778.5,828.5C 775.911,829.419 773.911,831.086 772.5,833.5C 770.251,834.08 768.585,835.413 767.5,837.5C 765.251,838.08 763.585,839.413 762.5,841.5C 760.596,841.738 759.262,842.738 758.5,844.5C 756.596,844.738 755.262,845.738 754.5,847.5C 752.973,847.427 751.973,848.094 751.5,849.5C 749.77,850.026 748.436,851.026 747.5,852.5C 745.973,852.427 744.973,853.094 744.5,854.5C 738.205,858.141 732.205,862.141 726.5,866.5C 724.973,866.427 723.973,867.094 723.5,868.5C 715.663,872.584 707.997,876.917 700.5,881.5C 698.973,881.427 697.973,882.094 697.5,883.5C 679.513,892.328 661.18,900.328 642.5,907.5C 640.597,907.796 638.93,908.463 637.5,909.5C 632.607,910.796 627.94,912.462 623.5,914.5C 620.848,914.41 618.515,915.076 616.5,916.5C 613.933,916.721 611.599,917.388 609.5,918.5C 606.848,918.41 604.515,919.076 602.5,920.5C 485.711,948.815 374.711,934.148 269.5,876.5C 268.71,875.599 267.71,874.932 266.5,874.5C 265.833,874.167 265.167,873.833 264.5,873.5C 263.71,872.599 262.71,871.932 261.5,871.5C 233.347,854.749 207.347,835.082 183.5,812.5C 181.833,810.167 179.833,808.167 177.5,806.5C 175.833,805.167 174.167,803.833 172.5,802.5C 171.243,799.573 169.243,797.239 166.5,795.5C 163.833,792.167 160.833,789.167 157.5,786.5C 157.573,784.973 156.906,783.973 155.5,783.5C 154.167,781.5 152.5,779.833 150.5,778.5C 150.573,776.973 149.906,775.973 148.5,775.5C 147.833,774.167 146.833,773.167 145.5,772.5C 145.573,770.973 144.906,769.973 143.5,769.5C 143.167,768.5 142.5,767.833 141.5,767.5C 141.573,765.973 140.906,764.973 139.5,764.5C 136.305,759.431 132.638,754.765 128.5,750.5C 128.573,748.973 127.906,747.973 126.5,747.5C 125.214,744.883 123.547,742.55 121.5,740.5C 121.573,738.973 120.906,737.973 119.5,737.5C 119.573,735.973 118.906,734.973 117.5,734.5C 117.573,732.973 116.906,731.973 115.5,731.5C 114.89,729.566 113.89,727.899 112.5,726.5C 112.573,724.973 111.906,723.973 110.5,723.5C 109.416,720.996 108.083,718.663 106.5,716.5C 106.573,714.973 105.906,713.973 104.5,713.5C 91.7734,690.662 80.7734,666.995 71.5,642.5C 71.2041,640.597 70.5375,638.93 69.5,637.5C 66.7912,627.972 63.7912,618.638 60.5,609.5C 60.5905,606.848 59.9238,604.515 58.5,602.5C 25.5007,461.218 52.0007,332.552 138,216.5C 228.148,105.181 345.314,47.8473 489.5,44.5C 529.124,44.7322 568.124,49.7322 606.5,59.5 Z"/></g>
<g><path style="opacity:1" fill="#606060" d="M 364.5,15.5 C 362.485,16.9238 360.152,17.5905 357.5,17.5C 359.515,16.0762 361.848,15.4095 364.5,15.5 Z"/></g>
<g><path style="opacity:1" fill="#535353" d="M 357.5,17.5 C 355.485,18.9238 353.152,19.5905 350.5,19.5C 352.515,18.0762 354.848,17.4095 357.5,17.5 Z"/></g>
<g><path style="opacity:1" fill="#676767" d="M 350.5,19.5 C 348.485,20.9238 346.152,21.5905 343.5,21.5C 345.515,20.0762 347.848,19.4095 350.5,19.5 Z"/></g>
<g><path style="opacity:1" fill="#636363" d="M 327.5,26.5 C 325.383,28.6545 322.716,29.6545 319.5,29.5C 321.936,28.129 324.603,27.129 327.5,26.5 Z"/></g>
<g><path style="opacity:1" fill="#858585" d="M 255.5,58.5 C 255.027,59.9063 254.027,60.573 252.5,60.5C 252.973,59.0937 253.973,58.427 255.5,58.5 Z"/></g>
<g><path style="opacity:1" fill="#5f5f5f" d="M 606.5,59.5 C 609.152,59.4095 611.485,60.0762 613.5,61.5C 610.848,61.5905 608.515,60.9238 606.5,59.5 Z"/></g>
<g><path style="opacity:1" fill="#7b7b7b" d="M 729.5,61.5 C 730.71,61.9321 731.71,62.5987 732.5,63.5C 730.821,63.7148 729.821,63.0481 729.5,61.5 Z"/></g>
<g><path style="opacity:1" fill="#868686" d="M 736.5,65.5 C 737.71,65.9321 738.71,66.5987 739.5,67.5C 737.821,67.7148 736.821,67.0481 736.5,65.5 Z"/></g>
<g><path style="opacity:1" fill="#848484" d="M 241.5,66.5 C 241.027,67.9063 240.027,68.573 238.5,68.5C 238.973,67.0937 239.973,66.427 241.5,66.5 Z"/></g>
<g><path style="opacity:1" fill="#787878" d="M 637.5,69.5 C 639.698,69.1201 641.365,69.7868 642.5,71.5C 640.597,71.2041 638.93,70.5375 637.5,69.5 Z"/></g>
<g><path style="opacity:1" fill="#808080" d="M 741.5,68.5 C 742.71,68.9321 743.71,69.5987 744.5,70.5C 742.821,70.7148 741.821,70.0481 741.5,68.5 Z"/></g>
<g><path style="opacity:1" fill="#7d7d7d" d="M 236.5,69.5 C 236.027,70.9063 235.027,71.573 233.5,71.5C 233.973,70.0937 234.973,69.427 236.5,69.5 Z"/></g>
<g><path style="opacity:1" fill="#7b7b7b" d="M 749.5,73.5 C 750.71,73.9321 751.71,74.5987 752.5,75.5C 750.821,75.7148 749.821,75.0481 749.5,73.5 Z"/></g>
<g><path style="opacity:1" fill="#7e7e7e" d="M 228.5,74.5 C 228.027,75.9063 227.027,76.573 225.5,76.5C 225.973,75.0937 226.973,74.427 228.5,74.5 Z"/></g>
<g><path style="opacity:1" fill="#808080" d="M 210.5,86.5 C 210.027,87.9063 209.027,88.573 207.5,88.5C 207.973,87.0937 208.973,86.427 210.5,86.5 Z"/></g>
<g><path style="opacity:1" fill="#979797" d="M 708.5,101.5 C 710.027,101.427 711.027,102.094 711.5,103.5C 709.973,103.573 708.973,102.906 708.5,101.5 Z"/></g>
<g><path style="opacity:1" fill="#606060" d="M 187.5,103.5 C 186.415,105.587 184.749,106.92 182.5,107.5C 183.585,105.413 185.251,104.08 187.5,103.5 Z"/></g>
<g><path style="opacity:1" fill="#636363" d="M 182.5,107.5 C 181.415,109.587 179.749,110.92 177.5,111.5C 178.585,109.413 180.251,108.08 182.5,107.5 Z"/></g>
<g><path style="opacity:1" fill="#9a9a9a" d="M 723.5,110.5 C 725.027,110.427 726.027,111.094 726.5,112.5C 724.973,112.573 723.973,111.906 723.5,110.5 Z"/></g>
<g><path style="opacity:1" fill="#5d5d5d" d="M 176.5,112.5 C 175.089,114.914 173.089,116.581 170.5,117.5C 171.911,115.086 173.911,113.419 176.5,112.5 Z"/></g>
<g><path style="opacity:1" fill="#818181" d="M 734.5,117.5 C 736.027,117.427 737.027,118.094 737.5,119.5C 735.973,119.573 734.973,118.906 734.5,117.5 Z"/></g>
<g><path style="opacity:1" fill="#696969" d="M 170.5,117.5 C 168.431,120.573 165.764,122.906 162.5,124.5C 164.569,121.427 167.236,119.094 170.5,117.5 Z"/></g>
<g><path style="opacity:1" fill="#818181" d="M 737.5,119.5 C 739.027,119.427 740.027,120.094 740.5,121.5C 738.973,121.573 737.973,120.906 737.5,119.5 Z"/></g>
<g><path style="opacity:1" fill="#838383" d="M 747.5,126.5 C 749.027,126.427 750.027,127.094 750.5,128.5C 748.973,128.573 747.973,127.906 747.5,126.5 Z"/></g>
<g><path style="opacity:1" fill="#595959" d="M 161.5,125.5 C 158.105,129.898 154.105,133.564 149.5,136.5C 152.895,132.102 156.895,128.436 161.5,125.5 Z"/></g>
<g><path style="opacity:1" fill="#9f9f9f" d="M 764.5,139.5 C 766.027,139.427 767.027,140.094 767.5,141.5C 765.973,141.573 764.973,140.906 764.5,139.5 Z"/></g>
<g><path style="opacity:1" fill="#919191" d="M 769.5,143.5 C 771.027,143.427 772.027,144.094 772.5,145.5C 770.973,145.573 769.973,144.906 769.5,143.5 Z"/></g>
<g><path style="opacity:1" fill="#878787" d="M 774.5,147.5 C 776.404,147.738 777.738,148.738 778.5,150.5C 776.596,150.262 775.262,149.262 774.5,147.5 Z"/></g>
<g><path style="opacity:1" fill="#9c9c9c" d="M 783.5,155.5 C 785.027,155.427 786.027,156.094 786.5,157.5C 784.973,157.573 783.973,156.906 783.5,155.5 Z"/></g>
<g><path style="opacity:1" fill="#979797" d="M 850.5,157.5 C 852.262,158.262 853.262,159.596 853.5,161.5C 851.738,160.738 850.738,159.404 850.5,157.5 Z"/></g>
<g><path style="opacity:1" fill="#8d8d8d" d="M 129.5,156.5 C 128.92,158.749 127.587,160.415 125.5,161.5C 126.08,159.251 127.413,157.585 129.5,156.5 Z"/></g>
<g><path style="opacity:1" fill="#a0a0a0" d="M 793.5,164.5 C 797.1,166.43 800.1,169.097 802.5,172.5C 798.9,170.57 795.9,167.903 793.5,164.5 Z"/></g>
<g><path style="opacity:1" fill="#909090" d="M 120.5,166.5 C 120.262,168.404 119.262,169.738 117.5,170.5C 117.738,168.596 118.738,167.262 120.5,166.5 Z"/></g>
<g><path style="opacity:1" fill="#a0a0a0" d="M 859.5,167.5 C 860.906,167.973 861.573,168.973 861.5,170.5C 860.094,170.027 859.427,169.027 859.5,167.5 Z"/></g>
<g><path style="opacity:1" fill="#808080" d="M 115.5,172.5 C 115.262,174.404 114.262,175.738 112.5,176.5C 112.738,174.596 113.738,173.262 115.5,172.5 Z"/></g>
<g><path style="opacity:1" fill="#888888" d="M 863.5,172.5 C 865.262,173.262 866.262,174.596 866.5,176.5C 864.738,175.738 863.738,174.404 863.5,172.5 Z"/></g>
<g><path style="opacity:1" fill="#adadad" d="M 806.5,177.5 C 809.5,178.5 811.5,180.5 812.5,183.5C 810.167,181.833 808.167,179.833 806.5,177.5 Z"/></g>
<g><path style="opacity:1" fill="#9d9d9d" d="M 109.5,179.5 C 109.573,181.027 108.906,182.027 107.5,182.5C 107.427,180.973 108.094,179.973 109.5,179.5 Z"/></g>
<g><path style="opacity:1" fill="#a0a0a0" d="M 869.5,179.5 C 870.906,179.973 871.573,180.973 871.5,182.5C 870.094,182.027 869.427,181.027 869.5,179.5 Z"/></g>
<g><path style="opacity:1" fill="#9a9a9a" d="M 105.5,184.5 C 105.573,186.027 104.906,187.027 103.5,187.5C 103.427,185.973 104.094,184.973 105.5,184.5 Z"/></g>
<g><path style="opacity:1" fill="#9c9c9c" d="M 873.5,184.5 C 874.906,184.973 875.573,185.973 875.5,187.5C 874.094,187.027 873.427,186.027 873.5,184.5 Z"/></g>
<g><path style="opacity:1" fill="#7d7d7d" d="M 91.5,203.5 C 91.2624,205.404 90.2624,206.738 88.5,207.5C 88.7376,205.596 89.7376,204.262 91.5,203.5 Z"/></g>
<g><path style="opacity:1" fill="#959595" d="M 88.5,207.5 C 88.573,209.027 87.9063,210.027 86.5,210.5C 86.427,208.973 87.0937,207.973 88.5,207.5 Z"/></g>
<g><path style="opacity:1" fill="#868686" d="M 86.5,210.5 C 86.573,212.027 85.9063,213.027 84.5,213.5C 84.427,211.973 85.0937,210.973 86.5,210.5 Z"/></g>
<g><path style="opacity:1" fill="#878787" d="M 892.5,210.5 C 893.906,210.973 894.573,211.973 894.5,213.5C 893.094,213.027 892.427,212.027 892.5,210.5 Z"/></g>
<g><path style="opacity:1" fill="#787878" d="M 84.5,213.5 C 84.573,215.027 83.9063,216.027 82.5,216.5C 82.427,214.973 83.0937,213.973 84.5,213.5 Z"/></g>
<g><path style="opacity:1" fill="#787878" d="M 894.5,213.5 C 895.906,213.973 896.573,214.973 896.5,216.5C 895.094,216.027 894.427,215.027 894.5,213.5 Z"/></g>
<g><path style="opacity:1" fill="#7a7a7a" d="M 82.5,216.5 C 82.573,218.027 81.9063,219.027 80.5,219.5C 80.427,217.973 81.0937,216.973 82.5,216.5 Z"/></g>
<g><path style="opacity:1" fill="#7c7c7c" d="M 896.5,216.5 C 897.906,216.973 898.573,217.973 898.5,219.5C 897.094,219.027 896.427,218.027 896.5,216.5 Z"/></g>
<g><path style="opacity:1" fill="#7f7f7f" d="M 80.5,219.5 C 80.573,221.027 79.9063,222.027 78.5,222.5C 78.427,220.973 79.0937,219.973 80.5,219.5 Z"/></g>
<g><path style="opacity:1" fill="#808080" d="M 898.5,219.5 C 899.906,219.973 900.573,220.973 900.5,222.5C 899.094,222.027 898.427,221.027 898.5,219.5 Z"/></g>
<g><path style="opacity:1" fill="#838383" d="M 78.5,222.5 C 78.573,224.027 77.9063,225.027 76.5,225.5C 76.427,223.973 77.0937,222.973 78.5,222.5 Z"/></g>
<g><path style="opacity:1" fill="#878787" d="M 900.5,222.5 C 901.906,222.973 902.573,223.973 902.5,225.5C 901.094,225.027 900.427,224.027 900.5,222.5 Z"/></g>
<g><path style="opacity:1" fill="#989898" d="M 76.5,225.5 C 76.573,227.027 75.9063,228.027 74.5,228.5C 74.427,226.973 75.0937,225.973 76.5,225.5 Z"/></g>
<g><path style="opacity:1" fill="#999999" d="M 902.5,225.5 C 903.906,225.973 904.573,226.973 904.5,228.5C 903.094,228.027 902.427,227.027 902.5,225.5 Z"/></g>
<g><path style="opacity:1" fill="#999999" d="M 71.5,233.5 C 71.573,235.027 70.9063,236.027 69.5,236.5C 69.427,234.973 70.0937,233.973 71.5,233.5 Z"/></g>
<g><path style="opacity:1" fill="#9d9d9d" d="M 907.5,233.5 C 908.906,233.973 909.573,234.973 909.5,236.5C 908.094,236.027 907.427,235.027 907.5,233.5 Z"/></g>
<g><path style="opacity:1" fill="#a0a0a0" d="M 68.5,238.5 C 68.573,240.027 67.9063,241.027 66.5,241.5C 66.427,239.973 67.0937,238.973 68.5,238.5 Z"/></g>
<g><path style="opacity:1" fill="#a5a5a5" d="M 910.5,238.5 C 911.906,238.973 912.573,239.973 912.5,241.5C 911.094,241.027 910.427,240.027 910.5,238.5 Z"/></g>
<g><path style="opacity:1" fill="#787878" d="M 865.5,251.5 C 867.048,251.821 867.715,252.821 867.5,254.5C 866.599,253.71 865.932,252.71 865.5,251.5 Z"/></g>
<g><path style="opacity:1" fill="#a3a3a3" d="M 60.5,252.5 C 60.573,254.027 59.9063,255.027 58.5,255.5C 58.427,253.973 59.0937,252.973 60.5,252.5 Z"/></g>
<g><path style="opacity:1" fill="#a4a4a4" d="M 918.5,252.5 C 919.906,252.973 920.573,253.973 920.5,255.5C 919.094,255.027 918.427,254.027 918.5,252.5 Z"/></g>
<g><path style="opacity:1" fill="#020202" d="M 641.5,276.5 C 641.821,278.048 642.821,278.715 644.5,278.5C 653.905,283.89 662.239,290.724 669.5,299C 674.186,298.966 678.852,298.466 683.5,297.5C 686.152,297.59 688.485,296.924 690.5,295.5C 701.515,291.38 712.515,287.047 723.5,282.5C 725.027,282.573 726.027,281.906 726.5,280.5C 728.849,278.659 731.515,277.326 734.5,276.5C 735.496,276.586 736.329,276.252 737,275.5C 737.483,276.448 737.649,277.448 737.5,278.5C 729.899,302.384 715.565,321.051 694.5,334.5C 693.244,334.461 692.244,334.961 691.5,336C 693.066,336.765 694.399,336.598 695.5,335.5C 704.161,333.834 712.828,332.168 721.5,330.5C 724.152,330.59 726.485,329.924 728.5,328.5C 735.694,325.656 743.027,322.989 750.5,320.5C 751.338,320.842 751.672,321.508 751.5,322.5C 737.67,343.834 720.504,362.167 700,377.5C 701.78,472.537 671.113,555.204 608,625.5C 536.183,697.107 449.683,726.274 348.5,713C 337.189,711.308 326.189,708.808 315.5,705.5C 313.485,704.076 311.152,703.41 308.5,703.5C 306.784,703.371 305.117,703.038 303.5,702.5C 302.365,700.787 300.698,700.12 298.5,700.5C 283.066,695.779 268.4,689.446 254.5,681.5C 254.027,680.094 253.027,679.427 251.5,679.5C 246.5,677.336 241.833,674.669 237.5,671.5C 237.027,670.094 236.027,669.427 234.5,669.5C 234.027,668.094 233.027,667.427 231.5,667.5C 229.973,667.573 228.973,666.906 228.5,665.5C 229.919,664.549 231.585,664.216 233.5,664.5C 280.33,667.625 323.663,656.959 363.5,632.5C 365.027,632.573 366.027,631.906 366.5,630.5C 368.027,630.573 369.027,629.906 369.5,628.5C 371.027,628.573 372.027,627.906 372.5,626.5C 374.404,626.262 375.738,625.262 376.5,623.5C 378.878,621.122 381.545,619.122 384.5,617.5C 385.043,617.44 385.376,617.107 385.5,616.5C 382.232,615.513 378.898,615.18 375.5,615.5C 361.431,614.144 348.431,609.81 336.5,602.5C 336.027,601.094 335.027,600.427 333.5,600.5C 333.027,599.094 332.027,598.427 330.5,598.5C 330.027,597.094 329.027,596.427 327.5,596.5C 327.027,595.094 326.027,594.427 324.5,594.5C 323.5,594.167 322.833,593.5 322.5,592.5C 321.738,590.738 320.404,589.738 318.5,589.5C 309.845,582.503 302.845,574.169 297.5,564.5C 297.715,562.821 297.048,561.821 295.5,561.5C 291.067,553.967 287.734,545.967 285.5,537.5C 286.568,536.566 287.901,536.232 289.5,536.5C 303.844,538.396 317.844,537.396 331.5,533.5C 329.485,532.076 327.152,531.41 324.5,531.5C 315.694,529.428 307.694,525.761 300.5,520.5C 300.027,519.094 299.027,518.427 297.5,518.5C 296.738,516.738 295.404,515.738 293.5,515.5C 293.027,514.094 292.027,513.427 290.5,513.5C 289.5,513.167 288.833,512.5 288.5,511.5C 287.415,509.413 285.749,508.08 283.5,507.5C 262.152,487.133 250.152,462.133 247.5,432.5C 247.182,427.968 247.515,423.634 248.5,419.5C 249.609,419.557 250.609,419.89 251.5,420.5C 251.821,422.048 252.821,422.715 254.5,422.5C 264.787,427.071 275.454,430.405 286.5,432.5C 289.304,433.638 292.304,433.805 295.5,433C 294.473,432.487 293.473,431.987 292.5,431.5C 291.167,430.833 290.167,429.833 289.5,428.5C 288.738,426.738 287.404,425.738 285.5,425.5C 279.413,420.749 274.413,415.082 270.5,408.5C 270.446,406.368 269.446,405.035 267.5,404.5C 267.715,402.821 267.048,401.821 265.5,401.5C 247.577,371.701 242.91,340.035 251.5,306.5C 252.924,304.485 253.59,302.152 253.5,299.5C 254.821,292.533 257.488,286.2 261.5,280.5C 262.609,280.557 263.609,280.89 264.5,281.5C 266.727,283.607 268.727,285.94 270.5,288.5C 270.427,290.027 271.094,291.027 272.5,291.5C 273.5,291.833 274.167,292.5 274.5,293.5C 275.08,295.749 276.413,297.415 278.5,298.5C 281.167,300.5 283.5,302.833 285.5,305.5C 288.5,310.5 292.5,314.5 297.5,317.5C 310.656,330.001 324.656,341.334 339.5,351.5C 339.821,353.048 340.821,353.715 342.5,353.5C 347.334,356.752 352.334,359.752 357.5,362.5C 357.821,364.048 358.821,364.715 360.5,364.5C 362.5,365.5 364.5,366.5 366.5,367.5C 366.821,369.048 367.821,369.715 369.5,369.5C 403.873,386.843 440.206,397.51 478.5,401.5C 480.607,402.468 482.941,402.802 485.5,402.5C 485.784,400.585 485.451,398.919 484.5,397.5C 479.14,368.667 483.807,341.667 498.5,316.5C 499.906,316.027 500.573,315.027 500.5,313.5C 502.062,309.608 504.395,306.275 507.5,303.5C 509.262,302.738 510.262,301.404 510.5,299.5C 513.167,296.167 516.167,293.167 519.5,290.5C 522.089,289.581 524.089,287.914 525.5,285.5C 528.275,282.395 531.608,280.062 535.5,278.5C 537.027,278.573 538.027,277.906 538.5,276.5C 543.07,273.384 548.07,271.05 553.5,269.5C 557.162,269.277 560.495,268.277 563.5,266.5C 590.689,259.555 616.689,262.889 641.5,276.5 Z"/></g>
<g><path style="opacity:1" fill="#808080" d="M 874.5,266.5 C 876.048,266.821 876.715,267.821 876.5,269.5C 875.599,268.71 874.932,267.71 874.5,266.5 Z"/></g>
<g><path style="opacity:1" fill="#636363" d="M 563.5,266.5 C 560.495,268.277 557.162,269.277 553.5,269.5C 556.505,267.723 559.838,266.723 563.5,266.5 Z"/></g>
<g><path style="opacity:1" fill="#777777" d="M 878.5,273.5 C 880.048,273.821 880.715,274.821 880.5,276.5C 879.599,275.71 878.932,274.71 878.5,273.5 Z"/></g>
<g><path style="opacity:1" fill="#9b9b9b" d="M 737.5,278.5 C 737.649,277.448 737.483,276.448 737,275.5C 736.329,276.252 735.496,276.586 734.5,276.5C 735.755,274.359 737.422,273.693 739.5,274.5C 739.006,276.026 738.339,277.359 737.5,278.5 Z"/></g>
<g><path style="opacity:1" fill="#818181" d="M 538.5,276.5 C 538.027,277.906 537.027,278.573 535.5,278.5C 535.973,277.094 536.973,276.427 538.5,276.5 Z"/></g>
<g><path style="opacity:1" fill="#848484" d="M 641.5,276.5 C 642.71,276.932 643.71,277.599 644.5,278.5C 642.821,278.715 641.821,278.048 641.5,276.5 Z"/></g>
<g><path style="opacity:1" fill="#828282" d="M 264.5,281.5 C 263.609,280.89 262.609,280.557 261.5,280.5C 262.86,277.985 263.86,278.318 264.5,281.5 Z"/></g>
<g><path style="opacity:1" fill="#7c7c7c" d="M 726.5,280.5 C 726.027,281.906 725.027,282.573 723.5,282.5C 723.973,281.094 724.973,280.427 726.5,280.5 Z"/></g>
<g><path style="opacity:1" fill="#5f5f5f" d="M 525.5,285.5 C 524.089,287.914 522.089,289.581 519.5,290.5C 520.911,288.086 522.911,286.419 525.5,285.5 Z"/></g>
<g><path style="opacity:1" fill="#979797" d="M 270.5,288.5 C 271.906,288.973 272.573,289.973 272.5,291.5C 271.094,291.027 270.427,290.027 270.5,288.5 Z"/></g>
<g><path style="opacity:1" fill="#868686" d="M 274.5,293.5 C 276.587,294.585 277.92,296.251 278.5,298.5C 276.413,297.415 275.08,295.749 274.5,293.5 Z"/></g>
<g><path style="opacity:1" fill="#5c5c5c" d="M 690.5,295.5 C 688.485,296.924 686.152,297.59 683.5,297.5C 685.515,296.076 687.848,295.41 690.5,295.5 Z"/></g>
<g><path style="opacity:1" fill="#858585" d="M 510.5,299.5 C 510.262,301.404 509.262,302.738 507.5,303.5C 507.738,301.596 508.738,300.262 510.5,299.5 Z"/></g>
<g><path style="opacity:1" fill="#5e5e5e" d="M 253.5,299.5 C 253.59,302.152 252.924,304.485 251.5,306.5C 251.41,303.848 252.076,301.515 253.5,299.5 Z"/></g>
<g><path style="opacity:1" fill="#a6a6a6" d="M 285.5,305.5 C 289.833,309.167 293.833,313.167 297.5,317.5C 292.5,314.5 288.5,310.5 285.5,305.5 Z"/></g>
<g><path style="opacity:1" fill="#8b8b8b" d="M 500.5,313.5 C 500.573,315.027 499.906,316.027 498.5,316.5C 498.427,314.973 499.094,313.973 500.5,313.5 Z"/></g>
<g><path style="opacity:1" fill="#9e9e9e" d="M 751.5,322.5 C 751.672,321.508 751.338,320.842 750.5,320.5C 751.172,319.733 752.005,319.066 753,318.5C 753.348,320.14 752.848,321.473 751.5,322.5 Z"/></g>
<g><path style="opacity:1" fill="#777777" d="M 949.5,319.5 C 950.537,320.93 951.204,322.597 951.5,324.5C 949.787,323.365 949.12,321.698 949.5,319.5 Z"/></g>
<g><path style="opacity:1" fill="#686868" d="M 728.5,328.5 C 726.485,329.924 724.152,330.59 721.5,330.5C 723.515,329.076 725.848,328.41 728.5,328.5 Z"/></g>
<g><path style="opacity:1" fill="#848484" d="M 694.5,334.5 C 694.5,335.167 694.833,335.5 695.5,335.5C 694.399,336.598 693.066,336.765 691.5,336C 692.244,334.961 693.244,334.461 694.5,334.5 Z"/></g>
<g><path style="opacity:1" fill="#6a6a6a" d="M 21.5,343.5 C 21.5905,346.152 20.9238,348.485 19.5,350.5C 19.4095,347.848 20.0762,345.515 21.5,343.5 Z"/></g>
<g><path style="opacity:1" fill="#767676" d="M 339.5,351.5 C 340.71,351.932 341.71,352.599 342.5,353.5C 340.821,353.715 339.821,353.048 339.5,351.5 Z"/></g>
<g><path style="opacity:1" fill="#5b5b5b" d="M 19.5,350.5 C 19.5905,353.152 18.9238,355.485 17.5,357.5C 17.4095,354.848 18.0762,352.515 19.5,350.5 Z"/></g>
<g><path style="opacity:1" fill="#606060" d="M 959.5,350.5 C 960.924,352.515 961.59,354.848 961.5,357.5C 960.076,355.485 959.41,353.152 959.5,350.5 Z"/></g>
<g><path style="opacity:1" fill="#6d6d6d" d="M 17.5,357.5 C 17.5905,360.152 16.9238,362.485 15.5,364.5C 15.4095,361.848 16.0762,359.515 17.5,357.5 Z"/></g>
<g><path style="opacity:1" fill="#828282" d="M 357.5,362.5 C 358.71,362.932 359.71,363.599 360.5,364.5C 358.821,364.715 357.821,364.048 357.5,362.5 Z"/></g>
<g><path style="opacity:1" fill="#727272" d="M 961.5,357.5 C 962.924,359.515 963.59,361.848 963.5,364.5C 962.076,362.485 961.41,360.152 961.5,357.5 Z"/></g>
<g><path style="opacity:1" fill="#797979" d="M 366.5,367.5 C 367.71,367.932 368.71,368.599 369.5,369.5C 367.821,369.715 366.821,369.048 366.5,367.5 Z"/></g>
<g><path style="opacity:1" fill="#797979" d="M 265.5,401.5 C 267.048,401.821 267.715,402.821 267.5,404.5C 266.599,403.71 265.932,402.71 265.5,401.5 Z"/></g>
<g><path style="opacity:1" fill="#717171" d="M 484.5,397.5 C 485.451,398.919 485.784,400.585 485.5,402.5C 482.941,402.802 480.607,402.468 478.5,401.5C 480.5,401.5 482.5,401.5 484.5,401.5C 484.5,400.167 484.5,398.833 484.5,397.5 Z"/></g>
<g><path style="opacity:1" fill="#808080" d="M 267.5,404.5 C 269.446,405.035 270.446,406.368 270.5,408.5C 269.026,407.564 268.026,406.23 267.5,404.5 Z"/></g>
<g><path style="opacity:1" fill="#909090" d="M 248.5,419.5 C 247.515,423.634 247.182,427.968 247.5,432.5C 246.188,427.985 246.188,423.318 247.5,418.5C 248.107,418.624 248.44,418.957 248.5,419.5 Z"/></g>
<g><path style="opacity:1" fill="#757575" d="M 251.5,420.5 C 252.71,420.932 253.71,421.599 254.5,422.5C 252.821,422.715 251.821,422.048 251.5,420.5 Z"/></g>
<g><path style="opacity:1" fill="#898989" d="M 285.5,425.5 C 287.404,425.738 288.738,426.738 289.5,428.5C 287.596,428.262 286.262,427.262 285.5,425.5 Z"/></g>
<g><path style="opacity:1" fill="#bcbcbc" d="M 292.5,431.5 C 293.473,431.987 294.473,432.487 295.5,433C 292.304,433.805 289.304,433.638 286.5,432.5C 288.735,432.795 290.735,432.461 292.5,431.5 Z"/></g>
<g><path style="opacity:1" fill="#919191" d="M 283.5,507.5 C 285.749,508.08 287.415,509.413 288.5,511.5C 286.251,510.92 284.585,509.587 283.5,507.5 Z"/></g>
<g><path style="opacity:1" fill="#939393" d="M 290.5,513.5 C 292.027,513.427 293.027,514.094 293.5,515.5C 291.973,515.573 290.973,514.906 290.5,513.5 Z"/></g>
<g><path style="opacity:1" fill="#787878" d="M 293.5,515.5 C 295.404,515.738 296.738,516.738 297.5,518.5C 295.596,518.262 294.262,517.262 293.5,515.5 Z"/></g>
<g><path style="opacity:1" fill="#9e9e9e" d="M 297.5,518.5 C 299.027,518.427 300.027,519.094 300.5,520.5C 298.973,520.573 297.973,519.906 297.5,518.5 Z"/></g>
<g><path style="opacity:1" fill="#5e5e5e" d="M 324.5,531.5 C 327.152,531.41 329.485,532.076 331.5,533.5C 328.848,533.59 326.515,532.924 324.5,531.5 Z"/></g>
<g><path style="opacity:1" fill="#bbbbbb" d="M 289.5,536.5 C 287.901,536.232 286.568,536.566 285.5,537.5C 284.957,537.44 284.624,537.107 284.5,536.5C 286.299,535.212 287.965,535.212 289.5,536.5 Z"/></g>
<g><path style="opacity:1" fill="#757575" d="M 295.5,561.5 C 297.048,561.821 297.715,562.821 297.5,564.5C 296.599,563.71 295.932,562.71 295.5,561.5 Z"/></g>
<g><path style="opacity:1" fill="#8a8a8a" d="M 318.5,589.5 C 320.404,589.738 321.738,590.738 322.5,592.5C 320.596,592.262 319.262,591.262 318.5,589.5 Z"/></g>
<g><path style="opacity:1" fill="#a0a0a0" d="M 324.5,594.5 C 326.027,594.427 327.027,595.094 327.5,596.5C 325.973,596.573 324.973,595.906 324.5,594.5 Z"/></g>
<g><path style="opacity:1" fill="#838383" d="M 327.5,596.5 C 329.027,596.427 330.027,597.094 330.5,598.5C 328.973,598.573 327.973,597.906 327.5,596.5 Z"/></g>
<g><path style="opacity:1" fill="#828282" d="M 330.5,598.5 C 332.027,598.427 333.027,599.094 333.5,600.5C 331.973,600.573 330.973,599.906 330.5,598.5 Z"/></g>
<g><path style="opacity:1" fill="#9e9e9e" d="M 333.5,600.5 C 335.027,600.427 336.027,601.094 336.5,602.5C 334.973,602.573 333.973,601.906 333.5,600.5 Z"/></g>
<g><path style="opacity:1" fill="#737373" d="M 58.5,602.5 C 59.9238,604.515 60.5905,606.848 60.5,609.5C 59.0762,607.485 58.4095,605.152 58.5,602.5 Z"/></g>
<g><path style="opacity:1" fill="#707070" d="M 920.5,602.5 C 920.59,605.152 919.924,607.485 918.5,609.5C 918.41,606.848 919.076,604.515 920.5,602.5 Z"/></g>
<g><path style="opacity:1" fill="#777777" d="M 375.5,615.5 C 378.898,615.18 382.232,615.513 385.5,616.5C 385.376,617.107 385.043,617.44 384.5,617.5C 381.5,616.833 378.5,616.167 375.5,615.5 Z"/></g>
<g><path style="opacity:1" fill="#656565" d="M 916.5,616.5 C 916.59,619.152 915.924,621.485 914.5,623.5C 914.41,620.848 915.076,618.515 916.5,616.5 Z"/></g>
<g><path style="opacity:1" fill="#7c7c7c" d="M 376.5,623.5 C 375.738,625.262 374.404,626.262 372.5,626.5C 373.262,624.738 374.596,623.738 376.5,623.5 Z"/></g>
<g><path style="opacity:1" fill="#757575" d="M 372.5,626.5 C 372.027,627.906 371.027,628.573 369.5,628.5C 369.973,627.094 370.973,626.427 372.5,626.5 Z"/></g>
<g><path style="opacity:1" fill="#797979" d="M 369.5,628.5 C 369.027,629.906 368.027,630.573 366.5,630.5C 366.973,629.094 367.973,628.427 369.5,628.5 Z"/></g>
<g><path style="opacity:1" fill="#777777" d="M 366.5,630.5 C 366.027,631.906 365.027,632.573 363.5,632.5C 363.973,631.094 364.973,630.427 366.5,630.5 Z"/></g>
<g><path style="opacity:1" fill="#787878" d="M 69.5,637.5 C 70.5375,638.93 71.2041,640.597 71.5,642.5C 69.7868,641.365 69.1201,639.698 69.5,637.5 Z"/></g>
<g><path style="opacity:1" fill="#767676" d="M 909.5,637.5 C 909.88,639.698 909.213,641.365 907.5,642.5C 907.796,640.597 908.463,638.93 909.5,637.5 Z"/></g>
<g><path style="opacity:1" fill="#939393" d="M 233.5,664.5 C 231.585,664.216 229.919,664.549 228.5,665.5C 227.244,665.539 226.244,665.039 225.5,664C 228.367,663.199 231.034,663.366 233.5,664.5 Z"/></g>
<g><path style="opacity:1" fill="#797979" d="M 231.5,667.5 C 233.027,667.427 234.027,668.094 234.5,669.5C 232.973,669.573 231.973,668.906 231.5,667.5 Z"/></g>
<g><path style="opacity:1" fill="#898989" d="M 234.5,669.5 C 236.027,669.427 237.027,670.094 237.5,671.5C 235.973,671.573 234.973,670.906 234.5,669.5 Z"/></g>
<g><path style="opacity:1" fill="#999999" d="M 251.5,679.5 C 253.027,679.427 254.027,680.094 254.5,681.5C 252.973,681.573 251.973,680.906 251.5,679.5 Z"/></g>
<g><path style="opacity:1" fill="#7d7d7d" d="M 298.5,700.5 C 300.698,700.12 302.365,700.787 303.5,702.5C 301.597,702.204 299.93,701.537 298.5,700.5 Z"/></g>
<g><path style="opacity:1" fill="#646464" d="M 308.5,703.5 C 311.152,703.41 313.485,704.076 315.5,705.5C 312.848,705.59 310.515,704.924 308.5,703.5 Z"/></g>
<g><path style="opacity:1" fill="#a3a3a3" d="M 104.5,713.5 C 105.906,713.973 106.573,714.973 106.5,716.5C 105.094,716.027 104.427,715.027 104.5,713.5 Z"/></g>
<g><path style="opacity:1" fill="#a2a2a2" d="M 874.5,713.5 C 874.573,715.027 873.906,716.027 872.5,716.5C 872.427,714.973 873.094,713.973 874.5,713.5 Z"/></g>
<g><path style="opacity:1" fill="#939393" d="M 110.5,723.5 C 111.906,723.973 112.573,724.973 112.5,726.5C 111.094,726.027 110.427,725.027 110.5,723.5 Z"/></g>
<g><path style="opacity:1" fill="#929292" d="M 868.5,723.5 C 868.573,725.027 867.906,726.027 866.5,726.5C 866.427,724.973 867.094,723.973 868.5,723.5 Z"/></g>
<g><path style="opacity:1" fill="#7b7b7b" d="M 115.5,731.5 C 116.906,731.973 117.573,732.973 117.5,734.5C 116.094,734.027 115.427,733.027 115.5,731.5 Z"/></g>
<g><path style="opacity:1" fill="#797979" d="M 863.5,731.5 C 863.573,733.027 862.906,734.027 861.5,734.5C 861.427,732.973 862.094,731.973 863.5,731.5 Z"/></g>
<g><path style="opacity:1" fill="#7f7f7f" d="M 117.5,734.5 C 118.906,734.973 119.573,735.973 119.5,737.5C 118.094,737.027 117.427,736.027 117.5,734.5 Z"/></g>
<g><path style="opacity:1" fill="#7f7f7f" d="M 861.5,734.5 C 861.573,736.027 860.906,737.027 859.5,737.5C 859.427,735.973 860.094,734.973 861.5,734.5 Z"/></g>
<g><path style="opacity:1" fill="#7e7e7e" d="M 119.5,737.5 C 120.906,737.973 121.573,738.973 121.5,740.5C 120.094,740.027 119.427,739.027 119.5,737.5 Z"/></g>
<g><path style="opacity:1" fill="#7d7d7d" d="M 859.5,737.5 C 859.573,739.027 858.906,740.027 857.5,740.5C 857.427,738.973 858.094,737.973 859.5,737.5 Z"/></g>
<g><path style="opacity:1" fill="#818181" d="M 68.5,741.5 C 70.0481,741.821 70.7148,742.821 70.5,744.5C 69.5987,743.71 68.9321,742.71 68.5,741.5 Z"/></g>
<g><path style="opacity:1" fill="#7c7c7c" d="M 73.5,749.5 C 75.0481,749.821 75.7148,750.821 75.5,752.5C 74.5987,751.71 73.9321,750.71 73.5,749.5 Z"/></g>
<g><path style="opacity:1" fill="#7c7c7c" d="M 126.5,747.5 C 127.906,747.973 128.573,748.973 128.5,750.5C 127.094,750.027 126.427,749.027 126.5,747.5 Z"/></g>
<g><path style="opacity:1" fill="#7c7c7c" d="M 852.5,747.5 C 852.573,749.027 851.906,750.027 850.5,750.5C 850.427,748.973 851.094,747.973 852.5,747.5 Z"/></g>
<g><path style="opacity:1" fill="#929292" d="M 139.5,764.5 C 140.906,764.973 141.573,765.973 141.5,767.5C 140.094,767.027 139.427,766.027 139.5,764.5 Z"/></g>
<g><path style="opacity:1" fill="#939393" d="M 839.5,764.5 C 839.573,766.027 838.906,767.027 837.5,767.5C 837.427,765.973 838.094,764.973 839.5,764.5 Z"/></g>
<g><path style="opacity:1" fill="#8e8e8e" d="M 143.5,769.5 C 144.906,769.973 145.573,770.973 145.5,772.5C 144.094,772.027 143.427,771.027 143.5,769.5 Z"/></g>
<g><path style="opacity:1" fill="#919191" d="M 835.5,769.5 C 835.573,771.027 834.906,772.027 833.5,772.5C 833.427,770.973 834.094,769.973 835.5,769.5 Z"/></g>
<g><path style="opacity:1" fill="#7e7e7e" d="M 831.5,774.5 C 831.262,776.404 830.262,777.738 828.5,778.5C 828.738,776.596 829.738,775.262 831.5,774.5 Z"/></g>
<g><path style="opacity:1" fill="#8d8d8d" d="M 148.5,775.5 C 149.906,775.973 150.573,776.973 150.5,778.5C 149.094,778.027 148.427,777.027 148.5,775.5 Z"/></g>
<g><path style="opacity:1" fill="#979797" d="M 155.5,783.5 C 156.906,783.973 157.573,784.973 157.5,786.5C 156.094,786.027 155.427,785.027 155.5,783.5 Z"/></g>
<g><path style="opacity:1" fill="#989898" d="M 823.5,783.5 C 823.573,785.027 822.906,786.027 821.5,786.5C 821.427,784.973 822.094,783.973 823.5,783.5 Z"/></g>
<g><path style="opacity:1" fill="#a3a3a3" d="M 166.5,795.5 C 169.243,797.239 171.243,799.573 172.5,802.5C 169.757,800.761 167.757,798.427 166.5,795.5 Z"/></g>
<g><path style="opacity:1" fill="#989898" d="M 814.5,793.5 C 812.57,797.1 809.903,800.1 806.5,802.5C 808.43,798.9 811.097,795.9 814.5,793.5 Z"/></g>
<g><path style="opacity:1" fill="#aaaaaa" d="M 177.5,806.5 C 179.833,808.167 181.833,810.167 183.5,812.5C 180.5,811.5 178.5,809.5 177.5,806.5 Z"/></g>
<g><path style="opacity:1" fill="#6b6b6b" d="M 802.5,806.5 C 798.108,811.894 793.108,816.561 787.5,820.5C 791.892,815.106 796.892,810.439 802.5,806.5 Z"/></g>
<g><path style="opacity:1" fill="#686868" d="M 786.5,821.5 C 784.761,824.243 782.427,826.243 779.5,827.5C 781.239,824.757 783.573,822.757 786.5,821.5 Z"/></g>
<g><path style="opacity:1" fill="#5b5b5b" d="M 778.5,828.5 C 777.089,830.914 775.089,832.581 772.5,833.5C 773.911,831.086 775.911,829.419 778.5,828.5 Z"/></g>
<g><path style="opacity:1" fill="#595959" d="M 772.5,833.5 C 771.415,835.587 769.749,836.92 767.5,837.5C 768.585,835.413 770.251,834.08 772.5,833.5 Z"/></g>
<g><path style="opacity:1" fill="#5b5b5b" d="M 767.5,837.5 C 766.415,839.587 764.749,840.92 762.5,841.5C 763.585,839.413 765.251,838.08 767.5,837.5 Z"/></g>
<g><path style="opacity:1" fill="#767676" d="M 758.5,844.5 C 757.738,846.262 756.404,847.262 754.5,847.5C 755.262,845.738 756.596,844.738 758.5,844.5 Z"/></g>
<g><path style="opacity:1" fill="#7e7e7e" d="M 754.5,847.5 C 754.027,848.906 753.027,849.573 751.5,849.5C 751.973,848.094 752.973,847.427 754.5,847.5 Z"/></g>
<g><path style="opacity:1" fill="#989898" d="M 156.5,849.5 C 158.749,850.08 160.415,851.413 161.5,853.5C 159.251,852.92 157.585,851.587 156.5,849.5 Z"/></g>
<g><path style="opacity:1" fill="#868686" d="M 747.5,852.5 C 747.027,853.906 746.027,854.573 744.5,854.5C 744.973,853.094 745.973,852.427 747.5,852.5 Z"/></g>
<g><path style="opacity:1" fill="#8b8b8b" d="M 166.5,858.5 C 168.027,858.427 169.027,859.094 169.5,860.5C 167.973,860.573 166.973,859.906 166.5,858.5 Z"/></g>
<g><path style="opacity:1" fill="#8c8c8c" d="M 172.5,863.5 C 174.404,863.738 175.738,864.738 176.5,866.5C 174.596,866.262 173.262,865.262 172.5,863.5 Z"/></g>
<g><path style="opacity:1" fill="#787878" d="M 726.5,866.5 C 726.027,867.906 725.027,868.573 723.5,868.5C 723.973,867.094 724.973,866.427 726.5,866.5 Z"/></g>
<g><path style="opacity:1" fill="#858585" d="M 261.5,871.5 C 262.71,871.932 263.71,872.599 264.5,873.5C 262.821,873.715 261.821,873.048 261.5,871.5 Z"/></g>
<g><path style="opacity:1" fill="#9c9c9c" d="M 184.5,873.5 C 186.027,873.427 187.027,874.094 187.5,875.5C 185.973,875.573 184.973,874.906 184.5,873.5 Z"/></g>
<g><path style="opacity:1" fill="#7f7f7f" d="M 266.5,874.5 C 267.71,874.932 268.71,875.599 269.5,876.5C 267.821,876.715 266.821,876.048 266.5,874.5 Z"/></g>
<g><path style="opacity:1" fill="#858585" d="M 700.5,881.5 C 700.027,882.906 699.027,883.573 697.5,883.5C 697.973,882.094 698.973,881.427 700.5,881.5 Z"/></g>
<g><path style="opacity:1" fill="#8f8f8f" d="M 210.5,892.5 C 212.027,892.427 213.027,893.094 213.5,894.5C 211.973,894.573 210.973,893.906 210.5,892.5 Z"/></g>
<g><path style="opacity:1" fill="#7b7b7b" d="M 213.5,894.5 C 215.027,894.427 216.027,895.094 216.5,896.5C 214.973,896.573 213.973,895.906 213.5,894.5 Z"/></g>
<g><path style="opacity:1" fill="#858585" d="M 216.5,896.5 C 218.027,896.427 219.027,897.094 219.5,898.5C 217.973,898.573 216.973,897.906 216.5,896.5 Z"/></g>
<g><path style="opacity:1" fill="#838383" d="M 219.5,898.5 C 221.027,898.427 222.027,899.094 222.5,900.5C 220.973,900.573 219.973,899.906 219.5,898.5 Z"/></g>
<g><path style="opacity:1" fill="#878787" d="M 222.5,900.5 C 224.027,900.427 225.027,901.094 225.5,902.5C 223.973,902.573 222.973,901.906 222.5,900.5 Z"/></g>
<g><path style="opacity:1" fill="#9b9b9b" d="M 225.5,902.5 C 227.027,902.427 228.027,903.094 228.5,904.5C 226.973,904.573 225.973,903.906 225.5,902.5 Z"/></g>
<g><path style="opacity:1" fill="#9d9d9d" d="M 233.5,907.5 C 235.027,907.427 236.027,908.094 236.5,909.5C 234.973,909.573 233.973,908.906 233.5,907.5 Z"/></g>
<g><path style="opacity:1" fill="#767676" d="M 642.5,907.5 C 641.365,909.213 639.698,909.88 637.5,909.5C 638.93,908.463 640.597,907.796 642.5,907.5 Z"/></g>
<g><path style="opacity:1" fill="#a7a7a7" d="M 238.5,910.5 C 240.027,910.427 241.027,911.094 241.5,912.5C 239.973,912.573 238.973,911.906 238.5,910.5 Z"/></g>
<g><path style="opacity:1" fill="#5c5c5c" d="M 623.5,914.5 C 621.485,915.924 619.152,916.59 616.5,916.5C 618.515,915.076 620.848,914.41 623.5,914.5 Z"/></g>
<g><path style="opacity:1" fill="#616161" d="M 609.5,918.5 C 607.485,919.924 605.152,920.59 602.5,920.5C 604.515,919.076 606.848,918.41 609.5,918.5 Z"/></g>
<g><path style="opacity:1" fill="#7a7a7a" d="M 319.5,949.5 C 321.698,949.12 323.365,949.787 324.5,951.5C 322.597,951.204 320.93,950.537 319.5,949.5 Z"/></g>
<g><path style="opacity:1" fill="#636363" d="M 350.5,959.5 C 353.152,959.41 355.485,960.076 357.5,961.5C 354.848,961.59 352.515,960.924 350.5,959.5 Z"/></g>
<g><path style="opacity:1" fill="#626262" d="M 361.5,962.5 C 364.152,962.41 366.485,963.076 368.5,964.5C 365.848,964.59 363.515,963.924 361.5,962.5 Z"/></g>
</svg>
