<?xml version="1.0" encoding="UTF-8"?>
<!DOCTYPE svg PUBLIC "-//W3C//DTD SVG 1.1//EN" "http://www.w3.org/Graphics/SVG/1.1/DTD/svg11.dtd">
<svg xmlns="http://www.w3.org/2000/svg" version="1.1" width="1600px" height="1600px" style="shape-rendering:geometricPrecision; text-rendering:geometricPrecision; image-rendering:optimizeQuality; fill-rule:evenodd; clip-rule:evenodd" xmlns:xlink="http://www.w3.org/1999/xlink">
<g><path style="opacity:0.989" fill="#000000" d="M 713.5,99.5 C 891.648,92.5954 1047.65,147.095 1181.5,263C 1309.87,379.583 1382.04,524.75 1398,698.5C 1409.5,888.343 1351.83,1053.34 1225,1193.5C 1103.03,1320.78 953.032,1389.78 775,1400.5C 666.333,1402.5 563.666,1377.84 467,1326.5C 458.992,1322.67 450.659,1318.67 442,1314.5C 325.88,1347.06 210.047,1379.39 94.5,1411.5C 131.273,1308.04 168.273,1204.21 205.5,1100C 176.649,1053.47 152.816,1004.63 134,953.5C 95.7927,842.877 88.7927,729.877 113,614.5C 149.103,453.782 232.936,323.949 364.5,225C 468.59,149.798 584.923,107.965 713.5,99.5 Z M 716.5,200.5 C 860.023,193.839 988.023,235.672 1100.5,326C 1229.11,436.772 1295.44,577.939 1299.5,749.5C 1296.29,912.415 1234.96,1049.25 1115.5,1160C 986.712,1270.47 837.712,1314.8 668.5,1293C 590.452,1280.99 518.452,1253.66 452.5,1211C 450.361,1209.6 448.028,1208.76 445.5,1208.5C 382.586,1225.86 319.752,1243.53 257,1261.5C 256.5,1261.17 256,1260.83 255.5,1260.5C 276.27,1203.35 296.937,1146.19 317.5,1089C 215.075,953.447 179.908,801.947 212,634.5C 246.423,485.29 326.923,369.124 453.5,286C 534.175,235.273 621.842,206.773 716.5,200.5 Z"/></g>
<g><path style="opacity:0.992" fill="#000000" d="M 496.5,399.5 C 514.17,399.333 531.836,399.5 549.5,400C 556.784,401.059 562.617,404.559 567,410.5C 570.507,415.51 573.507,420.843 576,426.5C 595.951,478.066 615.617,529.733 635,581.5C 635.667,585.833 635.667,590.167 635,594.5C 630.863,607.773 624.863,620.107 617,631.5C 606.091,646.414 594.424,660.747 582,674.5C 576.902,682.48 576.235,690.813 580,699.5C 617.812,771.988 669.978,832.154 736.5,880C 765.603,899.72 796.603,916.054 829.5,929C 835.226,930.104 840.56,929.104 845.5,926C 869.776,898.735 891.61,870.235 911,840.5C 917.307,833.398 925.14,830.898 934.5,833C 940.264,834.715 945.93,836.715 951.5,839C 996.971,861.568 1041.97,884.901 1086.5,909C 1093.27,912.096 1097.43,917.263 1099,924.5C 1100.85,956.276 1095.85,986.942 1084,1016.5C 1069.95,1040.23 1051.28,1058.56 1028,1071.5C 998.503,1092.25 965.669,1101.59 929.5,1099.5C 897.81,1099.7 867.477,1093.36 838.5,1080.5C 772.038,1058.77 711.372,1026.27 656.5,983C 593.985,931.859 540.318,873.526 495.5,808C 476.88,781.935 459.38,755.102 443,727.5C 421.68,689.303 407.68,648.97 401,606.5C 394.06,551.474 404.727,501.141 433,455.5C 440.618,444.881 448.618,434.548 457,424.5C 467.524,411.775 480.691,403.442 496.5,399.5 Z"/></g>
</svg>
